<svg width="226" height="215" viewBox="0 0 226 215" fill="none" xmlns="http://www.w3.org/2000/svg">
<path d="M222.562 112.776C234.105 155.854 208.541 200.133 165.463 211.675C122.385 223.218 78.1059 197.654 66.5631 154.576C55.0204 111.498 80.5848 67.2187 123.663 55.676C166.741 44.1333 211.02 69.6977 222.562 112.776Z" fill="url(#paint0_linear_196_269)" fill-opacity="0.7"/>
<path d="M135.407 170.939C115.438 205.526 71.2118 217.377 36.6249 197.408C2.03786 177.439 -9.81251 133.213 10.1563 98.6257C30.1251 64.0387 74.3513 52.1884 108.938 72.1572C143.525 92.126 155.376 136.352 135.407 170.939Z" fill="url(#paint1_linear_196_269)"/>
<path d="M40.0267 78.8673C31.073 45.4517 50.9034 11.1046 84.319 2.15089C117.735 -6.80281 152.082 13.0275 161.035 46.4432C169.989 79.8588 150.159 114.206 116.743 123.16C83.3276 132.113 48.9804 112.283 40.0267 78.8673Z" fill="url(#paint2_linear_196_269)"/>
<defs>
<linearGradient id="paint0_linear_196_269" x1="179.562" y1="214.447" x2="12.9534" y2="-90.3318" gradientUnits="userSpaceOnUse">
<stop stop-color="#8960FF"/>
<stop offset="0.755208" stop-color="#182343"/>
</linearGradient>
<linearGradient id="paint1_linear_196_269" x1="179.562" y1="214.447" x2="12.9534" y2="-90.3318" gradientUnits="userSpaceOnUse">
<stop stop-color="#8960FF"/>
<stop offset="0.6875" stop-color="#182343"/>
</linearGradient>
<linearGradient id="paint2_linear_196_269" x1="48.4447" y1="11.7634" x2="189.873" y2="154.066" gradientUnits="userSpaceOnUse">
<stop stop-color="#8960FF"/>
<stop offset="0.677083" stop-color="#182343"/>
</linearGradient>
</defs>
</svg>
