<svg width="34" height="34" viewBox="0 0 34 34" fill="none" xmlns="http://www.w3.org/2000/svg">
<path d="M33.0034 8.03543H28.1803C28.2506 7.88125 28.3145 7.72839 28.3691 7.57853C29.0588 5.68364 28.6851 3.56471 27.389 2.01986C26.093 0.475013 24.0709 -0.260966 22.0851 0.0893338C20.0989 0.439335 18.4508 1.82267 17.7612 3.71756C17.3099 5.1099 17.1907 6.58885 17.4122 8.0354H16.5446C16.7664 6.58876 16.6469 5.11024 16.196 3.71756C15.6844 2.30989 14.6348 1.163 13.2778 0.529574C11.9207 -0.103821 10.3675 -0.171758 8.96017 0.340417C7.55248 0.852593 6.4066 1.90325 5.7742 3.26063C5.14147 4.61835 5.07453 6.17155 5.58771 7.57847C5.64233 7.72865 5.70626 7.88118 5.77653 8.03536H0.99643C0.446288 8.03536 0.000341009 8.48161 0 9.03145V14.344C0.000332996 14.8941 0.446245 15.3401 0.99643 15.3401H2.05876V33.0043V33.0039C2.05876 33.5541 2.50467 34 3.05485 34H30.9452C31.4953 34 31.9412 33.5541 31.9412 33.0039V15.3406H33.0036C33.5537 15.3406 33.9997 14.8947 34 14.3445V9.03197C33.9997 8.48216 33.5538 8.03588 33.0036 8.03588L33.0034 8.03543ZM19.6332 4.39893C19.9646 3.48878 20.6439 2.74718 21.5217 2.33788C22.3996 1.92861 23.4043 1.88465 24.3144 2.216C25.2246 2.54735 25.9659 3.22666 26.3755 4.1045C26.7848 4.98234 26.8287 5.98669 26.4974 6.89718C26.3445 7.29812 26.146 7.68009 25.9056 8.03546H19.4291C19.2036 6.82463 19.2739 5.57714 19.6332 4.39896L19.6332 4.39893ZM7.46005 6.89724C7.1277 5.98675 7.17099 4.98171 7.58027 4.10328C7.98955 3.22476 8.73118 2.54513 9.64202 2.21342C10.5525 1.88207 11.5575 1.92602 12.4357 2.33597C13.3139 2.74591 13.9933 3.48823 14.3239 4.39897C14.6836 5.57715 14.7535 6.82464 14.528 8.03547H8.0515H8.05184C7.8114 7.68015 7.61259 7.29818 7.46007 6.89719L7.46005 6.89724ZM16.004 15.3401V22.6778H4.05081V15.3401H16.004ZM4.05081 24.6701H16.004V32.0077H4.05081V24.6701ZM17.9955 32.0077V24.6701H29.9488V32.0077H17.9955ZM29.9488 22.6778H17.9955V15.3401H29.9488V22.6778ZM32.0074 13.3478H1.99265V10.0277H32.0074V13.3478Z" fill="#8960FF"/>
</svg>
