<svg width="34" height="34" viewBox="0 0 34 34" fill="none" xmlns="http://www.w3.org/2000/svg">
<path d="M33.0036 6.97433H29.9491V1.30772C29.9491 0.585465 29.5032 0 28.953 0H3.65249C2.68411 0.00131164 1.75561 0.507152 1.07095 1.40599C0.386281 2.30483 0.00127879 3.52382 0 4.79472V23.9741C0.00233116 26.6323 0.807909 29.1808 2.2396 31.0602C3.67128 32.9396 5.61212 33.9969 7.63688 34H33.0039C33.554 34 34 33.4146 34 32.6923V8.28161C34 7.55935 33.5541 6.97389 33.0039 6.97344L33.0036 6.97433ZM3.65266 2.61545H27.9574V6.97433L3.65266 6.97477C3.05956 6.97477 2.51138 6.55899 2.2147 5.88482C1.91831 5.21066 1.91831 4.37955 2.2147 3.70532C2.51142 3.03072 3.05958 2.61537 3.65266 2.61537V2.61545ZM7.63688 31.3856C6.14026 31.3834 4.70562 30.6017 3.64763 29.2127C2.5893 27.8232 1.99415 25.9398 1.99253 23.9749V9.06441C2.50605 9.41068 3.07516 9.59123 3.65266 9.5908H32.0078V15.6932H27.6915C26.3867 15.6932 25.1809 16.607 24.5285 18.0909C23.8761 19.5743 23.8761 21.4023 24.5285 22.8857C25.1809 24.3692 26.3867 25.2829 27.6915 25.2829H32.0078V31.3858L7.63688 31.3856ZM32.0073 18.3083V22.6672H27.691C27.0979 22.6672 26.5497 22.2519 26.2534 21.5777C25.9567 20.9031 25.9567 20.0724 26.2534 19.3982C26.5498 18.7236 27.0979 18.3083 27.691 18.3083L32.0073 18.3083Z" fill="#8960FF"/>
</svg>
