<svg width="68" height="77" viewBox="0 0 68 77" fill="none" xmlns="http://www.w3.org/2000/svg">
<path d="M33.5528 21.5911L36.6926 21.5911L36.6926 19.502L34.5994 19.502L34.5994 18.4574L32.5062 18.4574L32.5062 19.6953C31.29 20.1278 30.413 21.2757 30.413 22.6357C30.413 24.3635 31.8218 25.7695 33.5528 25.7695C34.1294 25.7695 34.5994 26.2374 34.5994 26.814C34.5994 27.3906 34.1294 27.8586 33.5528 27.8586L30.413 27.8586L30.413 29.9477L32.539 29.9805L32.5062 30.9923L34.5994 30.9923L34.5994 29.7545C35.8156 29.322 36.6926 28.1741 36.6926 26.814C36.6926 25.0863 35.2839 23.6803 33.5528 23.6803C32.9763 23.6803 32.5062 23.2123 32.5062 22.6357C32.5062 22.0591 32.9762 21.5911 33.5528 21.5911Z" fill="url(#paint0_linear_27_573)"/>
<path fill-rule="evenodd" clip-rule="evenodd" d="M19.6219 46.1188V38.2793H47.4927V46.1188C52.5772 46.1188 54.1854 51.3417 54.9792 56.3553C55.8943 62.1416 56.6416 63.376 60.563 65.6361C64.4838 67.8962 67.1128 68.578 67.1128 72.1758V76.9994H47.4921V71.5465H39.9961V64.0623L36.0735 57.7386V47.6508H31.0393V57.7397L27.1168 64.0629V71.5471H19.6207V77H0V72.1763C0 68.5786 2.63017 67.8968 6.55215 65.6367C10.473 63.3766 11.2187 62.1422 12.136 56.3559C12.928 51.3423 14.5368 46.1193 19.6213 46.1193L19.6219 46.1188ZM32.7181 66.9976V49.325H34.3969V66.9976H32.7181ZM33.5581 17.1024C37.7444 17.1024 41.14 20.4919 41.14 24.6712C41.14 28.8504 37.7446 32.24 33.5581 32.24C29.3718 32.24 25.9762 28.8504 25.9762 24.6712C25.9762 20.4919 29.3716 17.1024 33.5581 17.1024ZM19.6218 36.604V17.329C19.6218 12.4642 28.6843 2.80925 33.5581 0C38.4302 2.80939 47.4932 12.4652 47.4932 17.329V36.604H19.6218ZM28.7955 74.5158V64.5274L31.0403 60.9077V68.6733H36.0745V60.9089L38.3193 64.5274V74.5158H28.7955Z" fill="url(#paint1_linear_27_573)"/>
<defs>
<linearGradient id="paint0_linear_27_573" x1="33.5564" y1="1.4491e-06" x2="84.5602" y2="68.4829" gradientUnits="userSpaceOnUse">
<stop stop-color="#8960FF"/>
<stop offset="0.697917" stop-color="#0E1629"/>
</linearGradient>
<linearGradient id="paint1_linear_27_573" x1="33.5564" y1="1.4491e-06" x2="84.5602" y2="68.4829" gradientUnits="userSpaceOnUse">
<stop stop-color="#8960FF"/>
<stop offset="0.697917" stop-color="#0E1629"/>
</linearGradient>
</defs>
</svg>
