<svg width="140" height="77" viewBox="0 0 140 77" fill="none" xmlns="http://www.w3.org/2000/svg">
<path d="M139.692 26.4479C139.653 26.2497 139.583 26.0623 139.52 25.8749C139.484 25.7735 139.468 25.6684 139.423 25.5682C139.336 25.3593 139.224 25.1659 139.107 24.9714C139.068 24.9033 139.037 24.8282 138.995 24.7613C138.822 24.5059 138.631 24.2672 138.415 24.0499L127.413 12.9435C125.593 11.1053 122.644 11.1053 120.823 12.9435C119.001 14.7816 119.002 17.7585 120.823 19.5976L123.871 22.6746L104.072 22.6722C98.2135 8.97826 84.8702 0 69.8743 0C53.7246 0 39.4925 10.4141 34.4597 25.9118C33.6582 28.3813 34.9905 31.0394 37.4352 31.8512C37.9187 32.01 38.4081 32.0876 38.8881 32.0876C40.847 32.0876 42.6711 30.8295 43.3166 28.8471C47.0914 17.2215 57.7663 9.41199 69.8742 9.41199C81.9821 9.41199 92.6537 17.2218 96.4318 28.845C97.0607 30.7774 98.8446 32.0845 100.86 32.0845H123.869L120.82 35.1591C119 36.9972 119 39.9765 120.82 41.8157C121.73 42.7347 122.922 43.1943 124.116 43.1943C125.308 43.1943 126.499 42.7336 127.408 41.8169L138.414 30.7082C138.464 30.6581 138.501 30.5972 138.55 30.5435C138.706 30.3693 138.863 30.195 138.991 29.998C139.043 29.9193 139.078 29.8309 139.127 29.7486C139.234 29.5672 139.342 29.3857 139.422 29.1888C139.464 29.0862 139.484 28.9799 139.519 28.8761C139.581 28.6899 139.651 28.5049 139.691 28.3091C139.75 28.0048 139.785 27.6944 139.785 27.3781C139.785 27.0618 139.75 26.7527 139.691 26.4483L139.692 26.4479ZM102.347 45.1515C99.895 44.3458 97.2659 45.6874 96.4642 48.1557C92.6918 59.7801 82.0169 67.5899 69.909 67.5899C57.8011 67.5899 47.1295 59.7801 43.3514 48.1569C42.7225 46.2245 40.9386 44.9174 38.9229 44.9174H15.9144L18.9631 41.8392C20.7837 40.0035 20.7837 37.0242 18.9631 35.185C17.1426 33.3457 14.1942 33.3469 12.3726 35.185L1.3666 46.2936C1.15144 46.5133 0.956376 46.7544 0.783782 47.0122C0.70694 47.1304 0.651379 47.2617 0.585177 47.3858C0.505971 47.5314 0.41967 47.6699 0.355835 47.8227C0.289633 47.9838 0.252988 48.1497 0.203334 48.3156C0.167868 48.4445 0.117033 48.5675 0.0910275 48.7023C0.0330998 49.0055 0 49.3135 0 49.6226C0 49.6262 0.00354653 49.631 0.00354653 49.6345C0.00354653 49.9413 0.0342831 50.2433 0.0933942 50.5429C0.12413 50.6849 0.172599 50.8162 0.211609 50.9535C0.257713 51.1087 0.294362 51.2686 0.357017 51.419C0.423219 51.5837 0.51661 51.7305 0.599363 51.8833C0.662018 51.9979 0.711669 52.1208 0.783785 52.2306C0.956381 52.4884 1.15143 52.7319 1.3666 52.9515L12.369 64.0602C13.2792 64.9792 14.4709 65.4388 15.6614 65.4388C16.8565 65.4388 18.0482 64.978 18.9574 64.0602C20.7779 62.2244 20.7779 59.2451 18.9574 57.406L15.9086 54.3278H35.7101C41.5689 68.0218 54.9121 77 69.9081 77C86.0577 77 100.29 66.5859 105.323 51.0882C106.127 48.6199 104.797 45.9606 102.348 45.1512L102.347 45.1515Z" fill="url(#paint0_linear_25_410)"/>
<defs>
<linearGradient id="paint0_linear_25_410" x1="69.8923" y1="1.4491e-06" x2="103.647" y2="94.399" gradientUnits="userSpaceOnUse">
<stop stop-color="#8960FF"/>
<stop offset="0.807292" stop-color="#0E1629"/>
</linearGradient>
</defs>
</svg>
