<svg width="28" height="28" viewBox="0 0 28 28" fill="none" xmlns="http://www.w3.org/2000/svg">
<path d="M5.72913 26.6859C4.51505 28.0371 2.23851 28.0371 1.02443 26.6859C-0.341478 25.3346 -0.341478 23.2328 1.02443 21.8817L8.91593 13.9251L1.02443 6.11838C-0.341478 4.76714 -0.341478 2.66526 1.02443 1.31423C2.23851 -0.0370108 4.51505 -0.0370108 5.72913 1.31423L13.7722 9.27085L22.1192 1.01343C23.4852 -0.337809 25.6099 -0.337809 26.9756 1.01343C28.3415 2.21447 28.3415 4.46654 26.9756 5.66758L18.6285 13.925L26.9756 22.1824C28.3415 23.5337 28.3415 25.6355 26.9756 26.9866C25.6097 28.3378 23.4849 28.3378 22.1192 26.9866L13.7722 18.7292L5.72913 26.6859Z" fill="#D9CCFF"/>
</svg>
