<svg width="34" height="34" viewBox="0 0 34 34" fill="none" xmlns="http://www.w3.org/2000/svg">
<path d="M7.89286 14.571C3.39263 14.571 0 16.6593 0 19.4285V29.1429C0 31.9118 3.39263 34 7.89286 34C12.3931 34 15.7857 31.9118 15.7857 29.1429V19.4285C15.7857 16.6593 12.3931 14.571 7.89286 14.571ZM13.3573 29.1426C13.3573 30.1328 11.2287 31.5714 7.89286 31.5714C4.55733 31.5714 2.42843 30.1329 2.42843 29.1426V27.847C3.8263 28.6561 5.72897 29.1426 7.89286 29.1426C10.0567 29.1426 11.9594 28.6562 13.3573 27.847V29.1426ZM13.3573 24.2855C13.3573 25.2757 11.2287 26.7143 7.89286 26.7143C4.55733 26.714 2.42843 25.2755 2.42843 24.2855V22.9898C3.8263 23.799 5.72897 24.2855 7.89286 24.2855C10.0567 24.2855 11.9594 23.799 13.3573 22.9898V24.2855ZM7.89286 21.8568C4.55733 21.8568 2.42843 20.4183 2.42843 19.4283C2.42843 18.4382 4.55697 16.9996 7.89286 16.9996C11.2284 16.9996 13.3573 18.4381 13.3573 19.4283C13.3573 20.4182 11.2285 21.8568 7.89286 21.8568Z" fill="#8960FF"/>
<path d="M26.1072 14.571C21.6069 14.571 18.2143 16.6593 18.2143 19.4285V29.1429C18.2143 31.9118 21.6069 34 26.1072 34C30.6074 34 34 31.9118 34 29.1429V19.4285C34 16.6593 30.6074 14.571 26.1072 14.571ZM31.5716 29.1426C31.5716 30.1328 29.443 31.5714 26.1072 31.5714C22.7716 31.5714 20.6427 30.1329 20.6427 29.1426V27.847C22.0406 28.6561 23.9433 29.1426 26.1072 29.1426C28.271 29.1426 30.1737 28.6562 31.5716 27.847V29.1426ZM31.5716 24.2855C31.5716 25.2757 29.443 26.7143 26.1072 26.7143C22.7716 26.714 20.6427 25.2755 20.6427 24.2855V22.9898C22.0406 23.799 23.9433 24.2855 26.1072 24.2855C28.271 24.2855 30.1737 23.799 31.5716 22.9898V24.2855ZM26.1072 21.8568C22.7716 21.8568 20.6427 20.4183 20.6427 19.4283C20.6427 18.4382 22.7713 16.9996 26.1072 16.9996C29.4427 16.9996 31.5716 18.4381 31.5716 19.4283C31.5716 20.4182 29.4428 21.8568 26.1072 21.8568Z" fill="#8960FF"/>
<path d="M22.7158 8.14391L17.8598 13.0005C17.3714 13.4903 16.5989 13.4604 16.141 13.0005L11.2845 8.14391C10.8101 7.66958 10.8101 6.90135 11.2845 6.42698C11.7588 5.95261 12.527 5.95264 13.0014 6.42698L15.7858 9.21141V1.21437C15.7858 0.543812 16.329 0 17.0001 0C17.6713 0 18.2145 0.543508 18.2145 1.21437V9.21141L20.9989 6.42698C21.4732 5.95264 22.2415 5.95264 22.7158 6.42698C23.1902 6.90131 23.1901 7.66954 22.7158 8.14391Z" fill="#8960FF"/>
</svg>
