<svg width="77" height="77" viewBox="0 0 77 77" fill="none" xmlns="http://www.w3.org/2000/svg">
<path d="M58.7125 55.5844L58.9531 54.7423L58.1711 54.9227C57.75 55.043 57.3289 54.9227 57.0281 54.6219L56.4867 54.0805L56.3063 54.7423C56.186 55.1634 55.8852 55.5243 55.4039 55.6446L54.7422 55.8251L55.2836 56.3665C55.5844 56.6673 55.7047 57.0883 55.5844 57.5094L55.3438 58.3516L56.1258 58.1712C56.5469 58.0509 56.968 58.1712 57.2688 58.4719L57.8102 59.0133L57.9906 58.3516C58.111 57.9305 58.4117 57.5696 58.893 57.4493L59.5547 57.2688L59.0133 56.7274C58.7727 56.4266 58.6524 56.0055 58.7125 55.5844Z" fill="url(#paint0_linear_25_276)"/>
<path d="M40.6051 61.9603H39.8833C39.4622 61.9603 39.0411 61.7197 38.8606 61.3587L38.4997 60.7572L38.1387 61.3587C37.8981 61.7197 37.5372 61.9603 37.1161 61.9603H36.3942L36.7551 62.5619C36.9958 62.9228 36.9958 63.4041 36.7551 63.765L36.3942 64.3666H37.1161C37.5372 64.3666 37.9582 64.6072 38.1387 64.9681L38.4997 65.5697L38.8606 64.9681C39.1012 64.6072 39.4622 64.3666 39.8833 64.3666H40.6051L40.2442 63.765C40.0036 63.4041 40.0036 62.9228 40.2442 62.5619L40.6051 61.9603Z" fill="url(#paint1_linear_25_276)"/>
<path d="M20.7543 54.8021L20.5738 54.1403L20.0324 54.6817C19.7316 54.9825 19.3105 55.1028 18.8894 54.9825L18.0472 54.7419L18.2277 55.5239C18.348 55.945 18.2277 56.3661 17.9269 56.6669L17.3855 57.2083L18.0472 57.3888C18.4683 57.5091 18.8293 57.8099 18.9496 58.2911L19.13 58.9528L19.6714 58.4114C19.9722 58.1106 20.3933 57.9903 20.8144 58.1106L21.6566 58.3513L21.4761 57.5692C21.3558 57.1481 21.4761 56.7271 21.7769 56.4263L22.3183 55.8849L21.6566 55.7044C21.1753 55.5239 20.8746 55.2231 20.7543 54.8021Z" fill="url(#paint2_linear_25_276)"/>
<path d="M18.2875 22.0166L18.0469 22.8587L18.8289 22.6783C19.25 22.558 19.6711 22.6783 19.9719 22.9791L20.5133 23.5205L20.6937 22.8587C20.814 22.4377 21.1148 22.0767 21.5961 21.9564L22.2578 21.7759L21.7164 21.2345C21.4156 20.9337 21.2953 20.5126 21.4156 20.0916L21.6562 19.2494L20.8742 19.4298C20.4531 19.5501 20.032 19.4298 19.7312 19.1291L19.1898 18.5877L19.0094 19.2494C18.889 19.6705 18.5883 20.0314 18.107 20.1517L17.4453 20.3322L17.9867 20.8736C18.2273 21.1744 18.3476 21.5955 18.2875 22.0166Z" fill="url(#paint3_linear_25_276)"/>
<path d="M56.2457 22.7989L56.4262 23.4606L56.9676 22.9192C57.2684 22.6185 57.6895 22.4981 58.1106 22.6185L58.9528 22.8591L58.7723 22.0771C58.652 21.656 58.7723 21.2349 59.0731 20.9341L59.6145 20.3927L58.9528 20.2122C58.5317 20.0919 58.1707 19.7911 58.0504 19.3099L57.87 18.6481L57.3286 19.1896C57.0278 19.4903 56.6067 19.6107 56.1856 19.4903L55.3434 19.2497L55.5239 20.0317C55.6442 20.4528 55.5239 20.8739 55.2231 21.1747L54.6817 21.7161L55.3434 21.8966C55.8246 22.0771 56.1254 22.3778 56.2457 22.7989Z" fill="url(#paint4_linear_25_276)"/>
<path d="M15.3395 39.7032L14.9786 39.1016C14.7379 38.7407 14.7379 38.2594 14.9786 37.8985L15.3395 37.2969H14.6176C14.1965 37.2969 13.7754 37.0563 13.595 36.6954L13.234 36.0938L12.8731 36.6954C12.6325 37.0563 12.2715 37.2969 11.8504 37.2969H11.1286L11.4895 37.8985C11.7301 38.2594 11.7301 38.7407 11.4895 39.1016L11.1286 39.7032H11.8504C12.2715 39.7032 12.6926 39.9438 12.8731 40.3047L13.234 40.9063L13.595 40.3047C13.8356 39.9438 14.1965 39.7032 14.6176 39.7032H15.3395Z" fill="url(#paint5_linear_25_276)"/>
<path d="M36.3949 14.4376H37.1167C37.5378 14.4376 37.9589 14.6782 38.1394 15.0391L38.5003 15.6407L38.8613 15.0391C39.1019 14.6782 39.4628 14.4376 39.8839 14.4376H40.6058L40.2449 13.836C40.0042 13.4751 40.0042 12.9938 40.2449 12.6329L40.6058 12.0313H39.8839C39.4628 12.0313 39.0417 11.7907 38.8613 11.4297L38.5003 10.8282L38.1394 11.4297C37.8988 11.7907 37.5378 12.0313 37.1167 12.0313H36.3949L36.7558 12.6329C36.9964 12.9938 36.9964 13.4751 36.7558 13.836L36.3949 14.4376Z" fill="url(#paint6_linear_25_276)"/>
<path d="M38.5 6.10352e-05C17.2645 6.10352e-05 0 17.2646 0 38.5001C0 59.7356 17.2645 77.0001 38.5 77.0001C59.7355 77.0001 77 59.7356 77 38.5001C77 17.2646 59.7355 6.10352e-05 38.5 6.10352e-05ZM51.4938 21.5958L53.0578 20.0317L52.5164 17.9263C52.3359 17.2646 52.757 16.6029 53.4188 16.4826C53.5992 16.4224 53.8398 16.4224 54.0203 16.4826L56.1257 17.024L57.6898 15.4599C58.171 14.9787 58.8929 14.9787 59.3742 15.4599C59.5546 15.6404 59.6148 15.8209 59.6749 16.0013L60.2163 18.0467L62.2617 18.5881C62.9234 18.7685 63.2843 19.4303 63.164 20.0318C63.1038 20.2724 62.9835 20.4529 62.8632 20.5732L61.2992 22.1373L61.8406 24.2427C62.021 24.9044 61.5999 25.5661 60.9382 25.6864C60.7577 25.7466 60.5171 25.7466 60.3367 25.6864L58.2313 25.145L56.6672 26.7091C56.4266 26.9497 56.1258 27.07 55.825 27.07C55.2836 27.07 54.8023 26.7091 54.682 26.1677L54.1406 24.1224L52.0953 23.581C51.4336 23.4005 51.0727 22.7388 51.193 22.1372C51.193 21.8966 51.3133 21.7161 51.4938 21.5958ZM62.9835 30.1981C62.1413 30.3786 61.4195 30.8598 60.8781 31.5215C60.5172 30.2582 59.9758 29.1153 59.4344 27.9121L59.7352 27.9723C60.5172 28.1528 61.3593 28.0926 62.0812 27.7918C62.382 28.5739 62.6827 29.3559 62.9835 30.1981ZM50.6514 15.7001C50.1702 16.422 49.9897 17.3242 50.11 18.1666C48.8467 17.4447 47.5835 16.8431 46.1998 16.3619C46.3803 15.5197 46.2599 14.6173 45.7787 13.8353L45.7185 13.6548C47.4631 14.1962 49.0874 14.8579 50.6514 15.7001ZM33.2659 11.4291C32.905 10.8275 33.1456 10.1056 33.687 9.80491C33.8675 9.6846 34.1081 9.62444 34.2886 9.62444H36.394L37.4768 7.81975C37.8377 7.21819 38.5596 7.03772 39.1009 7.39866C39.2814 7.51897 39.4017 7.63929 39.522 7.81975L40.6049 9.62444H42.7103C43.372 9.62444 43.9134 10.1658 43.9134 10.8276C43.9134 11.0682 43.8532 11.2487 43.7329 11.4291L42.7103 13.2338L43.7329 15.0385C44.0938 15.6401 43.8532 16.3619 43.3118 16.6627C43.1313 16.783 42.8907 16.8431 42.7103 16.8431H40.6049L39.522 18.6478C39.1611 19.2494 38.4392 19.4298 37.8979 19.0689C37.7174 18.9486 37.5971 18.8283 37.4768 18.6478L36.394 16.8431H34.2886C33.6269 16.8431 33.0855 16.3017 33.0855 15.64C33.0855 15.3994 33.1456 15.2189 33.2659 15.0384L34.2886 13.2337L33.2659 11.4291ZM31.2807 13.6549L31.1604 13.8354C30.7393 14.6174 30.5588 15.5198 30.7393 16.3619C29.3558 16.8432 28.0924 17.4448 26.8291 18.1666C26.9494 17.3244 26.7689 16.422 26.2877 15.7002C27.9118 14.858 29.5361 14.1962 31.2806 13.6548L31.2807 13.6549ZM13.8952 19.3697C14.0155 18.9486 14.3163 18.6478 14.7374 18.5275L16.7827 17.9861L17.3241 15.9408C17.5046 15.2791 18.1663 14.9181 18.7679 15.0384C19.0085 15.0986 19.1889 15.2189 19.3093 15.3392L20.8733 16.9033L22.9787 16.3619C23.6404 16.1814 24.3022 16.6025 24.4225 17.2642C24.4826 17.4447 24.4826 17.6853 24.4225 17.8658L23.8811 19.9712L25.4451 21.5352C25.9264 22.0165 25.9264 22.7384 25.4451 23.2196C25.2647 23.4001 25.0842 23.4602 24.9037 23.5204L22.8584 24.0618L22.317 26.1071C22.1967 26.5282 21.8959 26.829 21.4748 26.9493C21.0537 27.0696 20.6326 26.9493 20.3319 26.6485L18.7678 25.0845L16.6624 25.6259C16.0007 25.8063 15.339 25.3852 15.2186 24.7235C15.1585 24.5431 15.1585 24.3024 15.2186 24.122L15.76 22.0166L14.196 20.4525C13.8952 20.2119 13.7749 19.7908 13.8952 19.3697ZM17.5648 27.9119C16.9632 29.0548 16.482 30.2579 16.1211 31.5212C15.5796 30.8595 14.8578 30.3783 14.0157 30.1978C14.3164 29.4158 14.6172 28.5737 14.9782 27.7916C15.7 28.0923 16.5422 28.2127 17.3242 27.972L17.5648 27.9119ZM12.2108 43.9141L11.128 42.1094H9.02261C8.36089 42.1094 7.81949 41.568 7.81949 40.9063C7.81949 40.6657 7.87964 40.4852 7.99996 40.3047L9.02261 38.5001L7.99996 36.6954C7.63902 36.0938 7.87964 35.3719 8.42105 35.0712C8.60152 34.9509 8.84214 34.8908 9.02261 34.8908H11.128L12.2108 33.0861C12.5718 32.4845 13.2936 32.304 13.835 32.665C14.0154 32.7853 14.1358 32.9056 14.2561 33.0861L15.3389 34.8908H17.4443C18.106 34.8908 18.6474 35.4322 18.6474 36.0939C18.6474 36.3345 18.5872 36.515 18.4669 36.6954L17.4443 38.5001L18.4669 40.3048C18.8279 40.9064 18.5872 41.6283 18.0458 41.929C17.8654 42.0493 17.6248 42.1094 17.4443 42.1094H15.3389L14.2561 43.9141C13.8951 44.5157 13.1733 44.6962 12.6319 44.3352C12.4514 44.2751 12.271 44.0946 12.2108 43.9141ZM17.9256 49.7493L17.2639 49.5689C16.542 49.3884 15.8201 49.4486 15.1585 49.6892C14.6772 48.7267 14.3163 47.7642 13.9554 46.8017C14.7975 46.6212 15.5194 46.14 16.0608 45.4783C16.6022 46.9822 17.2038 48.426 17.9256 49.7493ZM25.5053 56.0056L23.9412 57.5697L24.4826 59.6751C24.6631 60.3368 24.242 60.9985 23.5803 61.1188C23.3998 61.179 23.1592 61.179 22.9787 61.1188L20.8733 60.5774L19.3093 62.1415C19.0085 62.4423 18.5272 62.5626 18.1663 62.4422C17.7452 62.3219 17.4444 62.0212 17.3241 61.6001L16.7827 59.5547L14.7374 59.0133C14.0757 58.8329 13.7147 58.1712 13.835 57.5696C13.8952 57.329 14.0155 57.1485 14.1358 57.0282L15.6999 55.4641L15.1585 53.3587C14.978 52.697 15.3991 52.0353 16.0608 51.915C16.2413 51.8548 16.4819 51.8548 16.6624 51.915L18.7678 52.4564L20.3319 50.8923C20.8131 50.4111 21.535 50.4111 22.0162 50.8923C22.1967 51.0728 22.2568 51.2533 22.317 51.4337L22.8584 53.479L24.9037 54.0204C25.5654 54.2009 25.9264 54.8626 25.8061 55.4642C25.8061 55.7048 25.6858 55.8853 25.5053 56.0056ZM31.4006 63.3447C29.7162 62.8634 28.1522 62.2017 26.5881 61.4197C26.8889 60.6978 27.0092 59.8556 26.7686 59.0736L26.7084 58.7127C27.9717 59.4346 29.2951 60.0962 30.6787 60.5775C30.6787 61.2392 30.799 61.961 31.16 62.5627L31.5209 63.1643L31.4006 63.3447ZM43.7327 64.9688C44.0936 65.5704 43.853 66.2923 43.3116 66.593C43.1311 66.7133 42.8905 66.7734 42.71 66.7734H40.6046L39.5218 68.5781C39.1609 69.1797 38.439 69.3602 37.8977 68.9992C37.7172 68.8789 37.5969 68.7586 37.4766 68.5781L36.3938 66.7734H34.2884C33.6267 66.7734 33.0852 66.232 33.0852 65.5703C33.0852 65.3297 33.1454 65.1492 33.2657 64.9688L34.2884 63.1641L33.2657 61.3594C32.9048 60.7578 33.1454 60.0359 33.6868 59.7352C33.8673 59.6149 34.1079 59.5547 34.2884 59.5547H36.3938L37.4766 57.7501C37.8375 57.1485 38.5594 56.968 39.1007 57.329C39.2812 57.4493 39.4015 57.5696 39.5218 57.7501L40.6046 59.5547H42.71C43.3718 59.5547 43.9132 60.0962 43.9132 60.7579C43.9132 60.9985 43.853 61.179 43.7327 61.3594L42.71 63.1641L43.7327 64.9688ZM45.5975 63.3447L45.4772 63.1642L45.8381 62.5626C46.199 61.9611 46.3795 61.2994 46.3194 60.5774C47.7029 60.0962 49.0265 59.4946 50.2897 58.7126L50.2295 59.0736C50.049 59.8556 50.1092 60.6977 50.41 61.4196C48.906 62.2618 47.2819 62.8634 45.5975 63.3447ZM63.1026 58.2313C62.9823 58.6524 62.6815 58.9532 62.2604 59.0735L60.2151 59.6149L59.6737 61.6602C59.5534 62.0813 59.2526 62.3821 58.8315 62.5024C58.4104 62.6227 57.9893 62.5024 57.6885 62.2016L56.1245 60.6376L54.0191 61.179C53.3574 61.3594 52.6956 60.9383 52.5753 60.2766C52.5152 60.0962 52.5152 59.8555 52.5753 59.6751L53.1167 57.5697L51.5527 56.0056C51.0714 55.5243 51.0714 54.8025 51.5527 54.3212C51.7331 54.1408 51.9136 54.0806 52.0941 54.0204L54.1394 53.479L54.6808 51.4337C54.8613 50.772 55.523 50.4111 56.1245 50.5314C56.3652 50.5915 56.5456 50.7118 56.666 50.8322L58.23 52.3962L60.3354 51.8548C60.9971 51.6743 61.6589 52.0954 61.7792 52.7572C61.8393 52.9376 61.8393 53.1783 61.7792 53.3587L61.2378 55.4641L62.8018 57.0282C63.1026 57.3891 63.2229 57.8102 63.1026 58.2313ZM59.0722 49.7492C59.7941 48.3657 60.4557 46.9219 60.8769 45.4782C61.4183 46.1399 62.1402 46.6212 62.9823 46.8016C62.6213 47.7641 62.2604 48.7266 61.7792 49.6891C61.1174 49.4485 60.3956 49.3883 59.6738 49.5688L59.0722 49.7492ZM67.9753 34.891C68.637 34.891 69.1785 35.4324 69.1785 36.0941C69.1785 36.3347 69.1183 36.5152 68.998 36.6957L67.9753 38.5003L68.998 40.305C69.3589 40.9066 69.1183 41.6285 68.5769 41.9292C68.3964 42.0495 68.1558 42.1096 67.9753 42.1096H65.8699L64.7871 43.9143C64.4262 44.5159 63.7043 44.6964 63.163 44.3354C62.9825 44.2151 62.8622 44.0948 62.7419 43.9143L61.6591 42.1096H59.5537C58.8919 42.1096 58.3505 41.5682 58.3505 40.9065C58.3505 40.6659 58.4107 40.4854 58.531 40.305L59.5537 38.5003L58.531 36.6956C58.1701 36.094 58.4107 35.3721 58.9521 35.0714C59.1326 34.9511 59.3732 34.891 59.5537 34.891H61.6591L62.7419 33.0863C63.1028 32.4847 63.8247 32.3042 64.366 32.6652C64.5465 32.7855 64.6668 32.9058 64.7871 33.0863L65.8699 34.891H67.9753Z" fill="url(#paint7_linear_25_276)"/>
<path d="M64.1273 36.6961L63.7663 36.0945L63.4054 36.6961C63.1648 37.057 62.8038 37.2976 62.3827 37.2976H61.6608L62.0218 37.8992C62.2624 38.2601 62.2624 38.7414 62.0218 39.1023L61.6608 39.7039H62.3827C62.8038 39.7039 63.2249 39.9445 63.4054 40.3054L63.7663 40.907L64.1273 40.3054C64.3679 39.9445 64.7288 39.7039 65.1499 39.7039H65.8718L65.5108 39.1023C65.2702 38.7414 65.2702 38.2601 65.5108 37.8992L65.8718 37.2976H65.1499C64.7288 37.2976 64.3679 37.057 64.1273 36.6961Z" fill="url(#paint8_linear_25_276)"/>
<defs>
<linearGradient id="paint0_linear_25_276" x1="38.5" y1="6.24843e-05" x2="87.1237" y2="74.9055" gradientUnits="userSpaceOnUse">
<stop stop-color="#8960FF"/>
<stop offset="0.807292" stop-color="#0E1629"/>
</linearGradient>
<linearGradient id="paint1_linear_25_276" x1="38.5" y1="6.24843e-05" x2="87.1237" y2="74.9055" gradientUnits="userSpaceOnUse">
<stop stop-color="#8960FF"/>
<stop offset="0.807292" stop-color="#0E1629"/>
</linearGradient>
<linearGradient id="paint2_linear_25_276" x1="38.5" y1="6.24843e-05" x2="87.1237" y2="74.9055" gradientUnits="userSpaceOnUse">
<stop stop-color="#8960FF"/>
<stop offset="0.807292" stop-color="#0E1629"/>
</linearGradient>
<linearGradient id="paint3_linear_25_276" x1="38.5" y1="6.24843e-05" x2="87.1237" y2="74.9055" gradientUnits="userSpaceOnUse">
<stop stop-color="#8960FF"/>
<stop offset="0.807292" stop-color="#0E1629"/>
</linearGradient>
<linearGradient id="paint4_linear_25_276" x1="38.5" y1="6.24843e-05" x2="87.1237" y2="74.9055" gradientUnits="userSpaceOnUse">
<stop stop-color="#8960FF"/>
<stop offset="0.807292" stop-color="#0E1629"/>
</linearGradient>
<linearGradient id="paint5_linear_25_276" x1="38.5" y1="6.24843e-05" x2="87.1237" y2="74.9055" gradientUnits="userSpaceOnUse">
<stop stop-color="#8960FF"/>
<stop offset="0.807292" stop-color="#0E1629"/>
</linearGradient>
<linearGradient id="paint6_linear_25_276" x1="38.5" y1="6.24843e-05" x2="87.1237" y2="74.9055" gradientUnits="userSpaceOnUse">
<stop stop-color="#8960FF"/>
<stop offset="0.807292" stop-color="#0E1629"/>
</linearGradient>
<linearGradient id="paint7_linear_25_276" x1="38.5" y1="6.24843e-05" x2="87.1237" y2="74.9055" gradientUnits="userSpaceOnUse">
<stop stop-color="#8960FF"/>
<stop offset="0.807292" stop-color="#0E1629"/>
</linearGradient>
<linearGradient id="paint8_linear_25_276" x1="38.5" y1="6.24843e-05" x2="87.1237" y2="74.9055" gradientUnits="userSpaceOnUse">
<stop stop-color="#8960FF"/>
<stop offset="0.807292" stop-color="#0E1629"/>
</linearGradient>
</defs>
</svg>
