<svg width="98" height="78" viewBox="0 0 98 78" fill="none" xmlns="http://www.w3.org/2000/svg">
<path d="M83.3689 35.4394L76.9985 2.96774C76.8384 1.96719 76.2595 1.08321 75.4087 0.543458C74.5579 0.00299548 73.5181 -0.142745 72.5533 0.144014L48.9992 7.20308L25.4452 0.144014C24.4804 -0.142766 23.4406 0.00299145 22.5898 0.543458C21.739 1.08313 21.1601 1.96709 21 2.96774L14.6296 35.4394H3.49995C2.24917 35.4394 1.09375 36.1122 0.46875 37.2042C-0.15625 38.2962 -0.15625 39.6418 0.46875 40.7337C1.09375 41.8257 2.24921 42.4985 3.49995 42.4985H94.5001C95.7508 42.4985 96.9062 41.8257 97.5312 40.7337C98.1562 39.6418 98.1562 38.2961 97.5312 37.2042C96.9062 36.1123 95.7508 35.4394 94.5001 35.4394H83.3689ZM22.4685 31.9099L23.8685 24.8508H74.1285L75.5285 31.9099H22.4685Z" fill="url(#paint0_linear_27_578)"/>
<path d="M80.4985 49.5576H59.4985C57.6422 49.5576 55.8616 50.3013 54.5484 51.6249C53.2359 52.9492 52.4984 54.7448 52.4984 56.6166H45.4984C45.4984 54.7447 44.7609 52.9491 43.4484 51.6249C42.1352 50.3013 40.3546 49.5576 38.4984 49.5576H17.4984C15.6422 49.5576 13.8616 50.3013 12.5484 51.6249C11.2359 52.9492 10.4984 54.7448 10.4984 56.6166V70.7347C10.4984 72.6067 11.2359 74.4022 12.5484 75.7265C13.8617 77.0501 15.6422 77.7938 17.4984 77.7938H38.4984C40.3547 77.7938 42.1352 77.0501 43.4484 75.7265C44.7609 74.4022 45.4984 72.6066 45.4984 70.7347V63.6757H52.4984V70.7347C52.4984 72.6067 53.2359 74.4022 54.5484 75.7265C55.8617 77.0501 57.6423 77.7938 59.4985 77.7938H80.4985C82.3547 77.7938 84.1353 77.0501 85.4485 75.7265C86.761 74.4022 87.4985 72.6066 87.4985 70.7347V56.6166C87.4985 54.7447 86.761 52.9491 85.4485 51.6249C84.1352 50.3013 82.3547 49.5576 80.4985 49.5576Z" fill="url(#paint1_linear_27_578)"/>
<defs>
<linearGradient id="paint0_linear_27_578" x1="49" y1="1.22124e-06" x2="32.5627" y2="74.0929" gradientUnits="userSpaceOnUse">
<stop stop-color="#8960FF"/>
<stop offset="0.833005" stop-color="#0E1629"/>
</linearGradient>
<linearGradient id="paint1_linear_27_578" x1="49" y1="1.22124e-06" x2="32.5627" y2="74.0929" gradientUnits="userSpaceOnUse">
<stop stop-color="#8960FF"/>
<stop offset="0.833005" stop-color="#0E1629"/>
</linearGradient>
</defs>
</svg>
