<svg width="77" height="77" viewBox="0 0 77 77" fill="none" xmlns="http://www.w3.org/2000/svg">
<path d="M41.58 43.2491C42.0933 43.2491 42.4784 42.8641 42.4784 42.3507V38.5007C42.4784 37.9874 42.0933 37.6024 41.58 37.6024H35.4843C34.9709 37.6024 34.5859 37.9874 34.5859 38.5007V42.3507C34.5859 42.8641 34.9709 43.2491 35.4843 43.2491H41.58Z" fill="url(#paint0_linear_25_407)"/>
<path d="M32.2109 27.6555H44.7234V33.3021H32.2109V27.6555Z" fill="url(#paint1_linear_25_407)"/>
<path d="M26.2445 53.6433H20.1488C19.6354 53.6433 19.2504 54.0283 19.2504 54.5417V58.3917C19.2504 58.905 19.6354 59.29 20.1488 59.29H26.2445C26.7579 59.29 27.1429 58.905 27.1429 58.3917V54.5417C27.207 54.0283 26.7579 53.6433 26.2445 53.6433Z" fill="url(#paint2_linear_25_407)"/>
<path d="M41.58 53.6433H35.4843C34.9709 53.6433 34.5859 54.0283 34.5859 54.5417V58.3917C34.5859 58.905 34.9709 59.29 35.4843 59.29H41.58C42.0933 59.29 42.4784 58.905 42.4784 58.3917V54.5417C42.4784 54.0283 42.0933 53.6433 41.58 53.6433Z" fill="url(#paint3_linear_25_407)"/>
<path d="M32.2109 17.71H44.7234V23.3567H32.2109V17.71Z" fill="url(#paint4_linear_25_407)"/>
<path d="M56.8509 53.6433H50.7552C50.2419 53.6433 49.8569 54.0283 49.8569 54.5417V58.3917C49.8569 58.905 50.2419 59.29 50.7552 59.29H56.8509C57.3643 59.29 57.7493 58.905 57.7493 58.3917V54.5417C57.7493 54.0283 57.3643 53.6433 56.8509 53.6433Z" fill="url(#paint5_linear_25_407)"/>
<path d="M38.5 0C17.2612 0 0 17.2612 0 38.5C0 59.7388 17.2612 77 38.5 77C59.7388 77 77 59.7388 77 38.5C77 17.2612 59.7388 0 38.5 0ZM48.4458 30.2867H56.0815C57.2365 30.2867 58.1991 31.3775 58.1991 32.5967V38.5642C58.1991 39.7192 57.2366 40.6176 56.0815 40.6176H47.6115L49.4082 42.4142C49.6649 42.6709 49.6649 43.0559 49.4082 43.3126C49.2799 43.4409 49.1515 43.5051 48.959 43.5051C48.8307 43.5051 48.6382 43.4409 48.5099 43.3126L45.6865 40.5535L45.6224 40.4893C45.6224 40.4251 45.5582 40.4251 45.5582 40.361V39.976C45.5582 39.7193 45.7507 39.5268 45.9432 39.3985L48.3174 37.0242C48.5741 36.7676 48.9591 36.7676 49.2158 37.0242C49.4724 37.2809 49.4724 37.6659 49.2158 37.9226L47.74 39.3983H56.1458C56.6591 39.3983 57.0441 39.0133 57.0441 38.5642V32.5966C57.0441 32.0833 56.5949 31.5058 56.1458 31.5058H48.4458C48.1249 31.5058 47.8041 31.2491 47.8041 30.8641C47.8041 30.6074 48.1249 30.2867 48.4458 30.2867ZM39.1415 49.0879V50.7562C39.1415 51.077 38.8849 51.3979 38.4999 51.3979C38.1149 51.3979 37.8582 51.1412 37.8582 50.7562V49.0879H23.8058V50.7562C23.8058 51.077 23.5491 51.3979 23.1641 51.3979C22.8433 51.3979 22.5224 51.1412 22.5224 50.7562V48.4462C22.5224 48.1254 22.7791 47.8045 23.1641 47.8045H37.8586V46.1362C37.8586 45.8154 38.1153 45.4945 38.5003 45.4945C38.8853 45.4945 39.142 45.7512 39.142 46.1362V47.8045H53.8365C54.1573 47.8045 54.4782 48.0612 54.4782 48.4462V50.7562C54.4782 51.077 54.2215 51.3979 53.8365 51.3979C53.5157 51.3979 53.1948 51.1412 53.1948 50.7562V49.0879H39.1415ZM33.3024 42.3503V38.5003C33.3024 37.3453 34.2649 36.3827 35.42 36.3827H41.5158C42.6708 36.3827 43.6333 37.3452 43.6333 38.5003V42.3503C43.6333 43.5053 42.6708 44.4679 41.5158 44.4679H35.42C34.265 44.4679 33.3024 43.5054 33.3024 42.3503ZM30.9924 17.0679C30.9924 16.7471 31.2491 16.4262 31.6341 16.4262H45.4299C45.7507 16.4262 46.0715 16.6829 46.0715 17.0679V23.9337C46.0715 24.2545 45.8149 24.5753 45.4299 24.5753H31.6341C31.3133 24.5753 30.9924 24.3187 30.9924 23.9337V17.0679ZM30.9924 27.0137C30.9924 26.6928 31.2491 26.372 31.6341 26.372H45.4299C45.7507 26.372 46.0715 26.6287 46.0715 27.0137V33.8794C46.0715 34.2002 45.8149 34.5211 45.4299 34.5211H31.6341C31.3133 34.5211 30.9924 34.2644 30.9924 33.8794V27.0137ZM18.7367 22.4579C18.7367 21.3029 19.6992 20.3403 20.8542 20.3403H28.49C28.8108 20.3403 29.1317 20.597 29.1317 20.982C29.1317 21.3028 28.875 21.6237 28.49 21.6237H20.9183C20.405 21.6237 20.02 22.0087 20.02 22.522V29.3877C20.02 29.9011 20.405 30.2861 20.9183 30.2861H27.0783L25.5383 28.7461C25.2817 28.4894 25.2817 28.1044 25.5383 27.8477C25.795 27.5911 26.18 27.5911 26.4367 27.8477L29.0676 30.4787C29.1317 30.5428 29.1959 30.607 29.1959 30.6712C29.1959 30.7353 29.2601 30.7995 29.2601 30.9278C29.2601 30.992 29.2601 31.0562 29.1959 31.1845C29.1959 31.2487 29.1317 31.3128 29.0676 31.377L26.2442 34.2003C26.1159 34.3287 25.9876 34.3928 25.7951 34.3928C25.6667 34.3928 25.4742 34.3287 25.3459 34.2003C25.0892 33.9437 25.0892 33.5587 25.3459 33.302L27.1426 31.5053H20.9826C19.8276 31.5053 18.865 30.5428 18.865 29.3877V22.4577L18.7367 22.4579ZM28.4258 58.3912C28.4258 59.5462 27.4633 60.5088 26.3082 60.5088H20.2124C19.0574 60.5088 18.0949 59.5463 18.0949 58.3912V54.5412C18.0949 53.3862 19.0574 52.4237 20.2124 52.4237H26.3082C27.4632 52.4237 28.4258 53.3862 28.4258 54.5412V58.3912ZM43.6967 58.3912C43.6967 59.5462 42.7342 60.5088 41.5791 60.5088H35.4834C34.3284 60.5088 33.3658 59.5463 33.3658 58.3912V54.5412C33.3658 53.3862 34.3283 52.4237 35.4834 52.4237H41.5791C42.7341 52.4237 43.6967 53.3862 43.6967 54.5412V58.3912ZM58.9676 58.3912C58.9676 59.5462 58.0051 60.5088 56.8501 60.5088H50.7543C49.5993 60.5088 48.6367 59.5463 48.6367 58.3912V54.5412C48.6367 53.3862 49.5992 52.4237 50.7543 52.4237H56.8501C58.0051 52.4237 58.9676 53.3862 58.9676 54.5412V58.3912Z" fill="url(#paint6_linear_25_407)"/>
<defs>
<linearGradient id="paint0_linear_25_407" x1="62" y1="56" x2="-36.5" y2="-12.5" gradientUnits="userSpaceOnUse">
<stop stop-color="#8960FF"/>
<stop offset="0.807292" stop-color="#0E1629"/>
</linearGradient>
<linearGradient id="paint1_linear_25_407" x1="62" y1="56" x2="-36.5" y2="-12.5" gradientUnits="userSpaceOnUse">
<stop stop-color="#8960FF"/>
<stop offset="0.807292" stop-color="#0E1629"/>
</linearGradient>
<linearGradient id="paint2_linear_25_407" x1="62" y1="56" x2="-36.5" y2="-12.5" gradientUnits="userSpaceOnUse">
<stop stop-color="#8960FF"/>
<stop offset="0.807292" stop-color="#0E1629"/>
</linearGradient>
<linearGradient id="paint3_linear_25_407" x1="62" y1="56" x2="-36.5" y2="-12.5" gradientUnits="userSpaceOnUse">
<stop stop-color="#8960FF"/>
<stop offset="0.807292" stop-color="#0E1629"/>
</linearGradient>
<linearGradient id="paint4_linear_25_407" x1="62" y1="56" x2="-36.5" y2="-12.5" gradientUnits="userSpaceOnUse">
<stop stop-color="#8960FF"/>
<stop offset="0.807292" stop-color="#0E1629"/>
</linearGradient>
<linearGradient id="paint5_linear_25_407" x1="62" y1="56" x2="-36.5" y2="-12.5" gradientUnits="userSpaceOnUse">
<stop stop-color="#8960FF"/>
<stop offset="0.807292" stop-color="#0E1629"/>
</linearGradient>
<linearGradient id="paint6_linear_25_407" x1="62" y1="56" x2="-36.5" y2="-12.5" gradientUnits="userSpaceOnUse">
<stop stop-color="#8960FF"/>
<stop offset="0.807292" stop-color="#0E1629"/>
</linearGradient>
</defs>
</svg>
