<svg width="34" height="34" viewBox="0 0 34 34" fill="none" xmlns="http://www.w3.org/2000/svg">
<path d="M17 -0.00012207C7.62701 -0.00012207 0 7.62689 0 16.9999C0 26.3729 7.62701 33.9999 17 33.9999C26.373 33.9999 34 26.3729 34 16.9999C34 7.62689 26.373 -0.00012207 17 -0.00012207ZM17 31.7332C8.87368 31.7332 2.26667 25.1262 2.26667 16.9999C2.26667 8.87355 8.87368 2.26654 17 2.26654C25.1263 2.26654 31.7333 8.87355 31.7333 16.9999C31.7333 25.1262 25.1263 31.7332 17 31.7332ZM18.1333 13.5999V24.9332C18.1333 25.5565 17.6233 26.0665 17 26.0665C16.3767 26.0665 15.8667 25.5565 15.8667 24.9332V13.5999C15.8667 12.9765 16.3767 12.4665 17 12.4665C17.6233 12.4665 18.1333 12.9765 18.1333 13.5999ZM18.1106 9.97321C18.122 10.0526 18.1333 10.1318 18.1333 10.1999C18.1333 10.4946 18.0086 10.7893 17.8047 11.0046C17.5894 11.2085 17.2947 11.3332 17 11.3332C16.8528 11.3332 16.7053 11.2993 16.5694 11.2427C16.4333 11.186 16.3089 11.1066 16.1955 11.0046C16.0936 10.8913 16.0141 10.7779 15.9575 10.6307C15.9006 10.4946 15.8667 10.3471 15.8667 10.1999C15.8667 9.90518 15.9914 9.61046 16.1953 9.39517C16.3086 9.29322 16.4333 9.21378 16.5692 9.15711C16.9886 8.98711 17.4872 9.08906 17.8044 9.39517C17.8497 9.45183 17.9064 9.5085 17.9405 9.56517C17.9858 9.63322 18.02 9.70127 18.0425 9.76906C18.0766 9.83711 18.0994 9.90517 18.1105 9.97321H18.1106Z" fill="url(#paint0_linear_30_912)"/>
<defs>
<linearGradient id="paint0_linear_30_912" x1="17" y1="-0.00012143" x2="38.4702" y2="33.075" gradientUnits="userSpaceOnUse">
<stop stop-color="#8960FF"/>
<stop offset="0.807292" stop-color="#0E1629"/>
</linearGradient>
</defs>
</svg>
