<svg width="34" height="34" viewBox="0 0 34 34" fill="none" xmlns="http://www.w3.org/2000/svg">
<path d="M33.9094 9.76944C33.8528 9.63333 33.7733 9.50887 33.66 9.40667L24.5933 0.34C24.4914 0.238052 24.3667 0.14723 24.2306 0.090563C24.0947 0.0338963 23.9472 0 23.8 0H1.13333C0.51 0 0 0.51 0 1.13333V32.8667C0 33.49 0.51 34 1.13333 34H32.8667C33.49 34 34 33.49 34 32.8667V10.2C34 10.0528 33.9661 9.90528 33.9094 9.76944V9.76944ZM24.9334 3.86471L30.1354 9.06664H24.9334V3.86471ZM2.26677 31.733V2.26638H22.6668V10.1997C22.6668 10.823 23.1768 11.333 23.8001 11.333H31.7334V31.733H2.26677ZM5.66677 9.06638C5.66677 8.44305 6.17677 7.93305 6.8001 7.93305H18.1334C18.7568 7.93305 19.2668 8.44305 19.2668 9.06638C19.2668 9.68972 18.7568 10.1997 18.1334 10.1997H6.8001C6.17677 10.1997 5.66677 9.68972 5.66677 9.06638ZM28.3334 16.9997C28.3334 17.623 27.8234 18.133 27.2001 18.133H6.8001C6.17677 18.133 5.66677 17.623 5.66677 16.9997C5.66677 16.3764 6.17677 15.8664 6.8001 15.8664H27.2001C27.8234 15.8664 28.3334 16.3764 28.3334 16.9997ZM28.3334 24.933C28.3334 25.5564 27.8234 26.0664 27.2001 26.0664H6.8001C6.17677 26.0664 5.66677 25.5564 5.66677 24.933C5.66677 24.3097 6.17677 23.7997 6.8001 23.7997H27.2001C27.8234 23.7997 28.3334 24.3097 28.3334 24.933Z" fill="url(#paint0_linear_30_918)"/>
<defs>
<linearGradient id="paint0_linear_30_918" x1="17" y1="6.39862e-07" x2="38.4702" y2="33.0751" gradientUnits="userSpaceOnUse">
<stop stop-color="#8960FF"/>
<stop offset="0.807292" stop-color="#0E1629"/>
</linearGradient>
</defs>
</svg>
