<?xml version="1.0" standalone="no"?>
<!DOCTYPE svg PUBLIC "-//W3C//DTD SVG 20010904//EN"
 "http://www.w3.org/TR/2001/REC-SVG-20010904/DTD/svg10.dtd">
<svg version="1.0" xmlns="http://www.w3.org/2000/svg"
 width="1120.000000pt" height="1120.000000pt" viewBox="0 0 1120.000000 1120.000000"
 preserveAspectRatio="xMidYMid meet">
<metadata>
Created by potrace 1.14, written by Peter Selinger 2001-2017
</metadata>
<g transform="translate(0.000000,1120.000000) scale(0.100000,-0.100000)"
fill="#000000" stroke="none">
<path d="M5368 8675 c-3 -3 -87 -13 -168 -21 -30 -3 -62 -7 -70 -9 -8 -3 -32
-7 -54 -11 -21 -3 -48 -8 -60 -10 -11 -2 -34 -7 -51 -10 -44 -9 -60 -12 -60
-14 0 -1 -7 -3 -15 -5 -101 -21 -266 -73 -414 -132 -100 -39 -349 -162 -354
-175 -2 -4 -8 -8 -13 -8 -12 0 -113 -62 -117 -72 -2 -4 -8 -8 -14 -8 -11 0
-181 -120 -186 -132 -2 -4 -8 -8 -13 -8 -6 0 -20 -9 -32 -21 -12 -12 -37 -33
-56 -48 -70 -53 -208 -187 -327 -317 -110 -120 -292 -379 -376 -534 -19 -36
-41 -76 -49 -90 -7 -14 -14 -31 -15 -38 -1 -8 -10 -22 -18 -31 -9 -10 -16 -22
-16 -28 0 -6 -16 -46 -36 -89 -47 -104 -111 -292 -112 -329 0 -17 -2 -35 -3
-40 -8 -28 16 -127 43 -178 96 -179 301 -251 480 -168 101 46 166 118 203 226
9 28 21 59 26 70 27 66 74 181 74 185 1 6 38 77 66 126 10 19 28 50 39 70 29
51 48 79 111 169 79 113 98 134 244 280 182 183 365 315 580 419 55 27 108 53
118 57 17 9 141 57 155 60 11 2 34 10 62 20 42 15 213 54 280 64 20 3 47 7 60
10 150 29 486 24 690 -11 130 -22 350 -84 460 -131 159 -67 396 -203 503 -287
154 -122 249 -214 367 -352 161 -189 304 -443 400 -709 18 -49 42 -106 53
-125 22 -37 106 -120 121 -120 5 0 17 -6 25 -14 46 -41 84 -43 1064 -42 515 1
936 -2 935 -6 -2 -4 -63 -68 -136 -143 -164 -166 -198 -227 -206 -360 -2 -36
26 -149 46 -186 25 -47 134 -155 158 -157 3 0 19 -6 35 -12 57 -22 148 -29
213 -17 88 15 135 53 431 351 572 574 661 666 661 676 0 5 4 10 9 10 5 0 13
10 17 23 3 12 12 29 20 37 7 8 15 28 18 43 3 15 9 39 12 55 21 92 -15 227 -81
301 -39 44 -608 623 -652 662 -10 9 -78 78 -151 152 -145 148 -190 180 -279
200 -265 61 -498 -169 -448 -442 14 -81 56 -142 194 -283 75 -77 134 -143 131
-146 -3 -4 -355 -7 -783 -7 l-777 0 -82 165 c-196 391 -501 767 -818 1009 -25
19 -47 37 -50 40 -9 12 -164 116 -240 163 -91 55 -173 102 -180 103 -3 1 -45
21 -95 46 -49 24 -92 44 -95 45 -3 0 -21 8 -40 16 -35 15 -70 30 -80 33 -3 1
-12 4 -20 8 -22 9 -195 68 -197 68 -2 0 -8 1 -15 4 -12 3 -123 31 -158 40 -8
1 -49 10 -90 18 -79 17 -147 27 -280 43 -48 5 -517 14 -522 9z"/>
<path d="M1184 5971 c-3 -3 -9 -6 -12 -6 -16 -1 -89 -29 -112 -43 -31 -19
-917 -908 -975 -978 -97 -118 -109 -286 -30 -427 29 -52 937 -969 1003 -1013
145 -97 346 -69 470 65 102 111 126 285 57 420 -29 57 -37 67 -187 219 -67 67
-118 122 -112 123 5 1 359 2 788 3 l778 1 67 -135 c65 -129 78 -154 132 -245
63 -106 214 -315 293 -404 95 -107 299 -302 396 -380 58 -45 113 -89 123 -97
9 -8 19 -14 21 -14 2 0 148 -94 182 -118 68 -48 382 -198 494 -237 3 -1 12 -4
20 -8 8 -3 47 -15 85 -27 39 -12 77 -25 85 -28 8 -3 20 -7 25 -7 6 -1 17 -4
25 -8 23 -8 112 -29 143 -33 16 -2 33 -7 39 -10 5 -4 24 -8 41 -10 18 -2 43
-6 57 -9 41 -9 118 -20 225 -32 141 -15 567 -8 675 12 14 2 41 6 60 9 19 2 80
13 135 25 55 11 109 22 120 24 11 2 45 11 75 20 30 9 84 25 120 36 36 10 79
25 95 32 17 7 32 13 35 14 27 6 95 33 149 58 36 17 68 31 71 32 16 2 263 135
294 158 6 4 47 30 91 58 78 51 214 149 246 179 9 8 44 40 80 70 125 108 273
264 378 400 28 36 54 70 59 75 58 72 202 309 264 435 63 129 119 260 110 260
-4 0 -2 4 3 8 9 7 32 59 40 92 2 8 8 28 14 44 39 100 28 232 -26 326 -137 234
-472 248 -629 25 -11 -17 -33 -64 -48 -105 -138 -378 -297 -637 -543 -885 -81
-82 -167 -158 -238 -210 -22 -16 -42 -32 -45 -35 -10 -11 -163 -108 -210 -133
-14 -7 -50 -26 -80 -42 -30 -16 -57 -29 -60 -30 -3 -1 -31 -13 -63 -28 -32
-15 -59 -27 -62 -27 -2 0 -16 -5 -32 -12 -15 -6 -30 -12 -33 -13 -3 0 -34 -11
-70 -22 -63 -21 -135 -41 -173 -49 -10 -2 -28 -6 -39 -10 -11 -3 -30 -7 -41
-9 -12 -1 -38 -6 -57 -10 -36 -6 -54 -9 -170 -21 -117 -13 -423 -7 -505 9 -11
3 -41 7 -66 11 -73 11 -100 16 -164 32 -106 27 -283 85 -309 102 -6 3 -16 7
-23 8 -24 4 -258 126 -316 165 -33 21 -61 39 -63 39 -2 0 -40 28 -85 63 -45
34 -93 71 -108 82 -63 47 -294 289 -330 345 -8 14 -26 36 -38 50 -13 14 -23
30 -23 37 0 7 -4 13 -8 13 -9 0 -129 200 -166 276 -20 43 -33 71 -77 169 -4
11 -22 58 -38 104 -17 46 -41 102 -55 125 -25 43 -88 106 -106 106 -5 0 -10 4
-10 9 0 8 -58 31 -120 49 -8 3 -436 6 -950 7 -514 2 -941 4 -949 4 -8 1 43 60
115 132 162 165 154 156 154 168 0 6 3 11 8 11 8 0 38 70 47 110 43 193 -69
393 -250 448 -44 14 -171 23 -181 13z"/>
</g>
</svg>
