<svg width="34" height="34" viewBox="0 0 34 34" fill="none" xmlns="http://www.w3.org/2000/svg">
<path d="M21.5334 0.000501933H12.4668C9.13483 0.000501933 6.00678 1.29243 3.64945 3.64995C1.292 6.00715 0 9.13521 0 12.4673C0 18.9609 4.98665 24.3109 11.3333 24.8886V32.8672C11.3333 33.3772 11.6733 33.8191 12.1605 33.9553C12.2627 33.9892 12.3646 34.0005 12.4666 34.0005C12.8519 34.0005 13.2261 33.7966 13.4413 33.4453L18.5527 24.9336H21.5332C24.8652 24.9336 27.9932 23.6417 30.3505 21.2842C32.708 18.927 34 15.7989 34 12.4669C34 5.58724 28.4128 0.000244141 21.5334 0.000244141L21.5334 0.000501933ZM28.7414 19.6751C26.8147 21.6018 24.2533 22.667 21.5334 22.667H17.9067C17.5101 22.667 17.1362 22.8709 16.932 23.2223L13.6001 28.7756V23.8004C13.6001 23.177 13.0901 22.667 12.4668 22.667C6.84538 22.667 2.26679 18.0885 2.26679 12.4671C2.26679 9.74709 3.33205 7.1857 5.25872 5.2591C7.18538 3.33251 9.74677 2.26717 12.4667 2.26717H21.5333C27.1547 2.26717 31.7333 6.84576 31.7333 12.4671C31.7333 15.1871 30.668 17.7485 28.7414 19.6751V19.6751ZM23.8 9.06714C23.8 9.69047 23.29 10.2005 22.6667 10.2005H11.3334C10.71 10.2005 10.2 9.69047 10.2 9.06714C10.2 8.44381 10.71 7.93381 11.3334 7.93381H22.6667C23.29 7.93381 23.8 8.44381 23.8 9.06714ZM23.8 15.8671C23.8 16.4905 23.29 17.0005 22.6667 17.0005H11.3334C10.71 17.0005 10.2 16.4905 10.2 15.8671C10.2 15.2438 10.71 14.7338 11.3334 14.7338H22.6667C23.29 14.7338 23.8 15.2438 23.8 15.8671Z" fill="url(#paint0_linear_30_920)"/>
<defs>
<linearGradient id="paint0_linear_30_920" x1="17" y1="0.00024478" x2="38.4705" y2="33.0755" gradientUnits="userSpaceOnUse">
<stop stop-color="#8960FF"/>
<stop offset="0.807292" stop-color="#0E1629"/>
</linearGradient>
</defs>
</svg>
