<svg width="34" height="34" viewBox="0 0 34 34" fill="none" xmlns="http://www.w3.org/2000/svg">
<path d="M32.8667 5.66667H29.4667V1.13333C29.4667 0.51 28.9567 0 28.3333 0C27.71 0 27.2 0.51 27.2 1.13333V5.66667H23.8C23.1767 5.66667 22.6667 6.17667 22.6667 6.8V11.3333C22.6667 11.9567 23.1767 12.4667 23.8 12.4667H27.2V32.8667C27.2 33.49 27.71 34 28.3333 34C28.9567 34 29.4667 33.49 29.4667 32.8667V12.4667H32.8667C33.49 12.4667 34 11.9567 34 11.3333V6.8C34 6.17667 33.49 5.66667 32.8667 5.66667ZM31.7333 10.2H24.9333V7.93333H31.7333V10.2ZM21.5333 22.6667H18.1333V1.13333C18.1333 0.51 17.6233 0 17 0C16.3767 0 15.8667 0.51 15.8667 1.13333V22.6667H12.4667C11.8433 22.6667 11.3333 23.1767 11.3333 23.8V28.3333C11.3333 28.9567 11.8433 29.4667 12.4667 29.4667H15.8667V32.8667C15.8667 33.49 16.3767 34 17 34C17.6233 34 18.1333 33.49 18.1333 32.8667V29.4667H21.5333C22.1567 29.4667 22.6667 28.9567 22.6667 28.3333V23.8C22.6667 23.1767 22.1567 22.6667 21.5333 22.6667ZM20.4 27.2H13.6V24.9333H20.4V27.2ZM11.3333 12.4667C11.3333 11.8433 10.8233 11.3333 10.2 11.3333H6.8V1.13333C6.8 0.51 6.29 0 5.66667 0C5.04333 0 4.53333 0.51 4.53333 1.13333V11.3333H1.13333C0.51 11.3333 0 11.8433 0 12.4667V17C0 17.6233 0.51 18.1333 1.13333 18.1333H4.53333V32.8667C4.53333 33.49 5.04333 34 5.66667 34C6.29 34 6.8 33.49 6.8 32.8667V18.1333H10.2C10.8233 18.1333 11.3333 17.6233 11.3333 17V12.4667ZM9.06667 15.8667H2.26667V13.6H9.06667V15.8667Z" fill="url(#paint0_linear_30_916)"/>
<defs>
<linearGradient id="paint0_linear_30_916" x1="17" y1="6.39862e-07" x2="38.4702" y2="33.0751" gradientUnits="userSpaceOnUse">
<stop stop-color="#8960FF"/>
<stop offset="0.807292" stop-color="#0E1629"/>
</linearGradient>
</defs>
</svg>
