<svg width="34" height="34" viewBox="0 0 34 34" fill="none" xmlns="http://www.w3.org/2000/svg">
<path d="M32.6803 26.299L22.6897 16.3103C23.7042 13.8576 23.8692 11.1334 23.1262 8.5272C22.4067 5.99179 20.7791 3.73934 18.5381 2.17106C15.2237 -0.140361 11.1781 -0.635448 7.46305 0.826767C7.09735 0.980226 6.82591 1.31032 6.74349 1.69935C6.66082 2.08866 6.77877 2.48959 7.0618 2.77255L13.6551 9.36454L9.33807 13.6807L2.75667 7.07684C2.47364 6.79388 2.0727 6.67595 1.68326 6.7586C1.29414 6.84099 0.963978 7.11238 0.822372 7.47775C-0.628264 11.1806 -0.144943 15.2137 2.15506 18.5277C3.71212 20.7683 5.96467 22.4074 8.50057 23.1269C11.1073 23.8697 13.8435 23.7165 16.3088 22.6904L26.2994 32.6791C27.184 33.5635 28.3398 34 29.4959 34C30.6516 34 31.8077 33.5636 32.6923 32.6791C34.4379 30.9221 34.4379 28.0681 32.6805 26.2992L32.6803 26.299ZM31.0053 31.016C30.1678 31.8534 28.7995 31.8534 27.9505 31.016L17.3823 20.4499C17.1583 20.2258 16.8515 20.1079 16.5448 20.1079C16.3679 20.1079 16.1791 20.155 16.014 20.2377C13.8909 21.3109 11.4493 21.5349 9.13795 20.8744C7.12095 20.2967 5.32833 18.9995 4.07801 17.195C2.60365 15.0723 2.06102 12.5959 2.49756 10.1666L8.51295 16.1809C8.9729 16.6407 9.71616 16.6407 10.1761 16.1809L16.1562 10.2019C16.6162 9.74201 16.6162 8.99889 16.1562 8.53905L10.1408 2.52482C12.5707 2.08839 15.0594 2.64275 17.1942 4.12868C18.9871 5.37876 20.2846 7.17104 20.8506 9.18764C21.4993 11.4991 21.2753 13.9399 20.2137 16.0509C19.9897 16.5108 20.0721 17.0533 20.4378 17.4189L31.006 27.9851C31.8551 28.8109 31.8551 30.1786 31.0057 31.0159L31.0053 31.016Z" fill="url(#paint0_linear_30_914)"/>
<defs>
<linearGradient id="paint0_linear_30_914" x1="17" y1="6.39862e-07" x2="38.4702" y2="33.0751" gradientUnits="userSpaceOnUse">
<stop stop-color="#8960FF"/>
<stop offset="0.807292" stop-color="#0E1629"/>
</linearGradient>
</defs>
</svg>
